<svg width="128" height="44" fill="none" xmlns="http://www.w3.org/2000/svg"><path fill-rule="evenodd" clip-rule="evenodd" d="M25.574 0h5.05c1.729 0 3.184 0 4.375.099 1.246.103 2.433.328 3.56.912a9.2 9.2 0 0 1 3.988 4.051c.575 1.146.796 2.351.898 3.617.097 1.21.097 2.688.097 4.445v4.866c0 1.757 0 3.235-.097 4.445-.102 1.266-.323 2.472-.898 3.617a9.2 9.2 0 0 1-3.988 4.052c-1.127.583-2.314.808-3.56.911-1.191.1-2.646.1-4.376.1H15.545a2.63 2.63 0 0 1-2.424-1.638 2.703 2.703 0 0 1 .548-2.906L26.12 13.686l3.753 3.743-8.061 8.342h8.706c1.863 0 3.102-.002 4.053-.08.92-.077 1.338-.212 1.6-.348a3.898 3.898 0 0 0 1.69-1.717c.134-.266.267-.69.342-1.626.078-.966.08-2.225.08-4.117V13.23c0-1.892-.002-3.15-.08-4.117-.075-.935-.208-1.36-.342-1.626a3.898 3.898 0 0 0-1.69-1.717c-.262-.136-.68-.27-1.6-.347-.951-.08-2.19-.081-4.053-.081h-4.837c-1.883 0-3.137.002-4.099.082-.93.078-1.352.215-1.615.353a3.9 3.9 0 0 0-1.692 1.74c-.133.269-.262.698-.327 1.646-.068.978-.055 2.25-.032 4.164l.027 2.197-5.259.065-.027-2.305c-.022-1.777-.04-3.27.044-4.494.088-1.278.298-2.498.868-3.658a9.202 9.202 0 0 1 3.993-4.107c1.135-.593 2.333-.82 3.59-.926 1.203-.1 2.674-.1 4.422-.1Z" fill="url(#a)"></path><path fill-rule="evenodd" clip-rule="evenodd" d="M25.574 0h5.05c1.729 0 3.184 0 4.375.099 1.246.103 2.433.328 3.56.912a9.2 9.2 0 0 1 3.988 4.051c.575 1.146.796 2.351.898 3.617.097 1.21.097 2.688.097 4.445v4.866c0 1.757 0 3.235-.097 4.445-.102 1.266-.323 2.472-.898 3.617a9.2 9.2 0 0 1-3.988 4.052c-1.127.583-2.314.808-3.56.911-1.191.1-2.646.1-4.376.1H15.545a2.63 2.63 0 0 1-2.424-1.638 2.703 2.703 0 0 1 .548-2.906L26.12 13.686l3.753 3.743-8.061 8.342h8.706c1.863 0 3.102-.002 4.053-.08.92-.077 1.338-.212 1.6-.348a3.898 3.898 0 0 0 1.69-1.717c.134-.266.267-.69.342-1.626.078-.966.08-2.225.08-4.117V13.23c0-1.892-.002-3.15-.08-4.117-.075-.935-.208-1.36-.342-1.626a3.898 3.898 0 0 0-1.69-1.717c-.262-.136-.68-.27-1.6-.347-.951-.08-2.19-.081-4.053-.081h-4.837c-1.883 0-3.137.002-4.099.082-.93.078-1.352.215-1.615.353a3.9 3.9 0 0 0-1.692 1.74c-.133.269-.262.698-.327 1.646-.068.978-.055 2.25-.032 4.164l.027 2.197-5.259.065-.027-2.305c-.022-1.777-.04-3.27.044-4.494.088-1.278.298-2.498.868-3.658a9.202 9.202 0 0 1 3.993-4.107c1.135-.593 2.333-.82 3.59-.926 1.203-.1 2.674-.1 4.422-.1Z" fill="url(#b)"></path><path fill-rule="evenodd" clip-rule="evenodd" d="M25.574 0h5.05c1.729 0 3.184 0 4.375.099 1.246.103 2.433.328 3.56.912a9.2 9.2 0 0 1 3.988 4.051c.575 1.146.796 2.351.898 3.617.097 1.21.097 2.688.097 4.445v4.866c0 1.757 0 3.235-.097 4.445-.102 1.266-.323 2.472-.898 3.617a9.2 9.2 0 0 1-3.988 4.052c-1.127.583-2.314.808-3.56.911-1.191.1-2.646.1-4.376.1H15.545a2.63 2.63 0 0 1-2.424-1.638 2.703 2.703 0 0 1 .548-2.906L26.12 13.686l3.753 3.743-8.061 8.342h8.706c1.863 0 3.102-.002 4.053-.08.92-.077 1.338-.212 1.6-.348a3.898 3.898 0 0 0 1.69-1.717c.134-.266.267-.69.342-1.626.078-.966.08-2.225.08-4.117V13.23c0-1.892-.002-3.15-.08-4.117-.075-.935-.208-1.36-.342-1.626a3.898 3.898 0 0 0-1.69-1.717c-.262-.136-.68-.27-1.6-.347-.951-.08-2.19-.081-4.053-.081h-4.837c-1.883 0-3.137.002-4.099.082-.93.078-1.352.215-1.615.353a3.9 3.9 0 0 0-1.692 1.74c-.133.269-.262.698-.327 1.646-.068.978-.055 2.25-.032 4.164l.027 2.197-5.259.065-.027-2.305c-.022-1.777-.04-3.27.044-4.494.088-1.278.298-2.498.868-3.658a9.202 9.202 0 0 1 3.993-4.107c1.135-.593 2.333-.82 3.59-.926 1.203-.1 2.674-.1 4.422-.1Z" fill="url(#c)"></path><path fill-rule="evenodd" clip-rule="evenodd" d="M25.574 0h5.05c1.729 0 3.184 0 4.375.099 1.246.103 2.433.328 3.56.912a9.2 9.2 0 0 1 3.988 4.051c.575 1.146.796 2.351.898 3.617.097 1.21.097 2.688.097 4.445v4.866c0 1.757 0 3.235-.097 4.445-.102 1.266-.323 2.472-.898 3.617a9.2 9.2 0 0 1-3.988 4.052c-1.127.583-2.314.808-3.56.911-1.191.1-2.646.1-4.376.1H15.545a2.63 2.63 0 0 1-2.424-1.638 2.703 2.703 0 0 1 .548-2.906L26.12 13.686l3.753 3.743-8.061 8.342h8.706c1.863 0 3.102-.002 4.053-.08.92-.077 1.338-.212 1.6-.348a3.898 3.898 0 0 0 1.69-1.717c.134-.266.267-.69.342-1.626.078-.966.08-2.225.08-4.117V13.23c0-1.892-.002-3.15-.08-4.117-.075-.935-.208-1.36-.342-1.626a3.898 3.898 0 0 0-1.69-1.717c-.262-.136-.68-.27-1.6-.347-.951-.08-2.19-.081-4.053-.081h-4.837c-1.883 0-3.137.002-4.099.082-.93.078-1.352.215-1.615.353a3.9 3.9 0 0 0-1.692 1.74c-.133.269-.262.698-.327 1.646-.068.978-.055 2.25-.032 4.164l.027 2.197-5.259.065-.027-2.305c-.022-1.777-.04-3.27.044-4.494.088-1.278.298-2.498.868-3.658a9.202 9.202 0 0 1 3.993-4.107c1.135-.593 2.333-.82 3.59-.926 1.203-.1 2.674-.1 4.422-.1Z" fill="url(#d)"></path><path fill-rule="evenodd" clip-rule="evenodd" d="M8.97 38.576c.952.079 2.19.081 4.053.081h4.919c1.698 0 2.827-.002 3.697-.068.844-.064 1.23-.177 1.473-.29a3.898 3.898 0 0 0 1.902-1.932c.11-.246.222-.64.285-1.496.065-.884.067-2.031.067-3.757h5.259v.098c0 1.602 0 2.95-.081 4.057-.085 1.156-.27 2.261-.75 3.325a9.2 9.2 0 0 1-4.49 4.562c-1.047.488-2.135.675-3.273.761-1.09.083-2.416.083-3.993.083h-5.12c-1.73 0-3.185 0-4.376-.099-1.246-.103-2.433-.328-3.56-.912a9.2 9.2 0 0 1-3.988-4.051C.419 37.792.198 36.587.096 35.32 0 34.111 0 32.633 0 30.876V26.01c0-1.757 0-3.235.097-4.445.102-1.266.323-2.472.898-3.617a9.2 9.2 0 0 1 3.988-4.052c1.127-.583 2.314-.808 3.56-.912 1.191-.098 2.646-.098 4.376-.098h15.078c1.452 0 2.629 1.196 2.629 2.671 0 1.475-1.177 2.672-2.63 2.672H13.024c-1.863 0-3.101.002-4.053.08-.92.077-1.338.212-1.6.348a3.898 3.898 0 0 0-1.69 1.717c-.134.266-.267.69-.342 1.626-.078.966-.08 2.225-.08 4.117v4.652c0 1.892.002 3.15.08 4.117.075.935.208 1.36.342 1.626.37.74.962 1.34 1.69 1.717.262.136.68.27 1.6.347Z" fill="url(#e)"></path><path fill-rule="evenodd" clip-rule="evenodd" d="M8.97 38.576c.952.079 2.19.081 4.053.081h4.919c1.698 0 2.827-.002 3.697-.068.844-.064 1.23-.177 1.473-.29a3.898 3.898 0 0 0 1.902-1.932c.11-.246.222-.64.285-1.496.065-.884.067-2.031.067-3.757h5.259v.098c0 1.602 0 2.95-.081 4.057-.085 1.156-.27 2.261-.75 3.325a9.2 9.2 0 0 1-4.49 4.562c-1.047.488-2.135.675-3.273.761-1.09.083-2.416.083-3.993.083h-5.12c-1.73 0-3.185 0-4.376-.099-1.246-.103-2.433-.328-3.56-.912a9.2 9.2 0 0 1-3.988-4.051C.419 37.792.198 36.587.096 35.32 0 34.111 0 32.633 0 30.876V26.01c0-1.757 0-3.235.097-4.445.102-1.266.323-2.472.898-3.617a9.2 9.2 0 0 1 3.988-4.052c1.127-.583 2.314-.808 3.56-.912 1.191-.098 2.646-.098 4.376-.098h15.078c1.452 0 2.629 1.196 2.629 2.671 0 1.475-1.177 2.672-2.63 2.672H13.024c-1.863 0-3.101.002-4.053.08-.92.077-1.338.212-1.6.348a3.898 3.898 0 0 0-1.69 1.717c-.134.266-.267.69-.342 1.626-.078.966-.08 2.225-.08 4.117v4.652c0 1.892.002 3.15.08 4.117.075.935.208 1.36.342 1.626.37.74.962 1.34 1.69 1.717.262.136.68.27 1.6.347Z" fill="url(#f)"></path><path d="M70.667 30.475V33.2a.703.703 0 0 1-.697.707H55.082c-.02 0-.043 0-.064-.003a2.25 2.25 0 0 1-1.8-.993 2.081 2.081 0 0 1-.294-1.072 2.082 2.082 0 0 1 .405-1.238l11.305-15.9H54.51a.703.703 0 0 1-.695-.71V11.27c0-.391.312-.709.695-.709h14.19a.33.33 0 0 1 .048.002c.004 0 .011-.002.018 0a2.241 2.241 0 0 1 1.848 1.08 2.088 2.088 0 0 1-.159 2.225L59.147 29.768H69.97c.385 0 .697.318.697.706ZM80.19 30.406c-2.55 0-4.404-2.017-4.404-4.808 0-2.826 1.855-4.843 4.405-4.843 2.547 0 4.368 2.017 4.368 4.843 0 2.79-1.82 4.808-4.368 4.808ZM88.17 17.29h-2.912a.703.703 0 0 0-.698.706v1.949c-1.322-1.882-3.374-2.994-5.759-2.994-4.305 0-7.45 3.636-7.45 8.647 0 5.01 3.145 8.612 7.45 8.612 2.385 0 4.437-1.11 5.759-2.962v1.917c0 .41.329.74.73.74h2.88c.403 0 .73-.33.73-.74V18.028a.734.734 0 0 0-.73-.738ZM101.887 16.952c-2.252 0-4.106 1.076-5.166 2.86v-1.816c0-.471-.264-.707-.695-.707h-2.914c-.43 0-.694.236-.694.707v15.17c0 .47.264.74.694.74h2.914c.431 0 .695-.27.695-.74v-9.015c0-2.22 1.392-3.7 3.477-3.7 2.02 0 3.378 1.48 3.378 3.7v9.015c0 .409.326.74.727.74h2.882a.735.735 0 0 0 .728-.74v-9.653c0-3.87-2.484-6.56-6.026-6.56ZM119.157 30.406c-2.55 0-4.368-2.017-4.368-4.808 0-2.826 1.818-4.843 4.368-4.843 2.584 0 4.405 2.017 4.405 4.843 0 2.79-1.821 4.808-4.405 4.808Zm.034-13.454c-5.132 0-8.841 3.635-8.841 8.646 0 5.01 3.709 8.612 8.841 8.612 5.1 0 8.807-3.601 8.807-8.612s-3.707-8.646-8.807-8.646Z" fill="url(#a)"></path><defs><radialGradient id="b" cx="0" cy="0" r="1" gradientUnits="userSpaceOnUse" gradientTransform="rotate(-15.65 40.41 -39.944) scale(19.8802 19.9384)"><stop stop-color="#18CFD7"></stop><stop offset="1" stop-color="#18CFD7" stop-opacity="0"></stop></radialGradient><radialGradient id="c" cx="0" cy="0" r="1" gradientUnits="userSpaceOnUse" gradientTransform="rotate(152.23 9.687 12.079) scale(7.44809 7.45863)"><stop stop-color="#4990FE"></stop><stop offset="0.354" stop-color="#4990FE"></stop><stop offset="1" stop-color="#4990FE" stop-opacity="0"></stop></radialGradient><radialGradient id="d" cx="0" cy="0" r="1" gradientUnits="userSpaceOnUse" gradientTransform="rotate(-46.089 40.713 -3.203) scale(13.5749 13.5512)"><stop stop-color="#4990FE"></stop><stop offset="0.406" stop-color="#4990FE"></stop><stop offset="1" stop-color="#4990FE" stop-opacity="0"></stop></radialGradient><radialGradient id="f" cx="0" cy="0" r="1" gradientUnits="userSpaceOnUse" gradientTransform="matrix(-8.4732 10.41066 -10.2903 -8.37523 30.788 30.873)"><stop offset="0.337" stop-color="#2950FF"></stop><stop offset="0.792" stop-color="#2950FF" stop-opacity="0"></stop></radialGradient><linearGradient id="a" x1="20.747" y1="30.873" x2="21.103" y2="-0.04" gradientUnits="userSpaceOnUse"><stop offset="0.431" stop-color="#498FFD"></stop><stop offset="1" stop-color="#16D1D6"></stop></linearGradient><linearGradient id="e" x1="30.788" y1="44.123" x2="30.902" y2="12.576" gradientUnits="userSpaceOnUse"><stop stop-color="#2950FF"></stop><stop offset="0.822" stop-color="#498FFD"></stop></linearGradient></defs></svg>